<svg version="1.1" xmlns="http://www.w3.org/2000/svg" xmlns:xlink="http://www.w3.org/1999/xlink" width="512px" height="512px" viewBox="0,0,256,256"><g fill="#203864" fill-rule="nonzero" stroke="none" stroke-width="1" stroke-linecap="butt" stroke-linejoin="miter" stroke-miterlimit="10" stroke-dasharray="" stroke-dashoffset="0" font-family="none" font-weight="none" font-size="none" text-anchor="none" style="mix-blend-mode: normal"><g transform="scale(0.5,0.5)"><path d="M340.8,98.4c50.7,0 91.9,41.3 91.9,92.3c0,26.2 -10.9,49.8 -28.3,66.6l-148.4,149.8l-151,-152.5c-15.8,-16.6 -25.6,-39.1 -25.6,-63.9c0,-51 41.1,-92.3 91.9,-92.3c38.2,0 70.9,23.4 84.8,56.8c13.7,-33.3 46.5,-56.8 84.7,-56.8M340.8,83c-33.8,0 -64.8,15.8 -84.8,41.8c-20,-26 -51,-41.8 -84.8,-41.8c-59.1,0 -107.2,48.3 -107.2,107.7c0,27.9 10.6,54.4 29.9,74.6l151.2,152.7l10.9,11l10.9,-11l148.3,-149.8c21,-20.3 32.8,-47.9 32.8,-77.5c0,-59.4 -48.1,-107.7 -107.2,-107.7z"></path></g></g></svg>