<svg width="512" height="512" xmlns="http://www.w3.org/2000/svg">

 <g>
  <title>background</title>
  <rect fill="none" id="canvas_background" height="402" width="582" y="-1" x="-1"/>
 </g>
 <g>
  <title>Layer 1</title>
  <path id="svg_1" d="m340.8,98.4c50.7,0 91.9,41.3 91.9,92.3c0,26.2 -10.9,49.8 -28.3,66.6l-148.4,149.8l-151,-152.5c-15.8,-16.6 -25.6,-39.1 -25.6,-63.9c0,-51 41.1,-92.3 91.9,-92.3c38.2,0 70.9,23.4 84.8,56.8c13.7,-33.3 46.5,-56.8 84.7,-56.8m0,-15.4c-33.8,0 -64.8,15.8 -84.8,41.8c-20,-26 -51,-41.8 -84.8,-41.8c-59.1,0 -107.2,48.3 -107.2,107.7c0,27.9 10.6,54.4 29.9,74.6l151.2,152.7l10.9,11l10.9,-11l148.3,-149.8c21,-20.3 32.8,-47.9 32.8,-77.5c0,-59.4 -48.1,-107.7 -107.2,-107.7l0,0z"/>
  <path id="svg_7" d="m255.84225,405.99367c0,0 158.04415,-159.30598 158.04415,-159.30598c1.89275,0.63091 15.77287,-29.33754 15.77287,-29.33754c0,0 3.15458,-29.33754 3.1483,-29.65299c0.00628,0.31545 -4.09467,-26.49842 -4.10095,-26.81388c0.00628,0.31546 -10.71927,-22.81809 -10.71927,-22.81809c0,0 -14.51104,-16.08833 -14.51732,-16.29863c0.00628,0.2103 -15.76659,-11.77708 -15.77287,-11.98738c0.00628,0.2103 -15.76659,-7.04522 -15.76659,-7.04522c0,0 -18.92744,-5.04732 -18.92744,-5.04732c0,0 -26.81388,0.63091 -26.81388,0.63091c0,0 -21.76656,6.62461 -21.76656,6.62461c0,0 -15.14196,7.57098 -15.14824,7.36068c0.00628,0.2103 -9.45744,8.41219 -9.46372,8.20189c0.00628,0.2103 -11.9811,13.45951 -11.98739,13.24921c0.00629,0.2103 -8.82652,14.40588 -8.8328,14.19559c0.00628,0.21029 -2.83283,6.51944 -2.83283,6.51944c0,0 -8.51735,-16.08833 -8.52364,-16.29862c0.00629,0.21029 -12.29655,-15.24712 -12.29655,-15.24712c0,0 -21.13565,-15.14195 -21.14194,-15.35225c0.00629,0.2103 -17.97478,-7.67614 -17.98107,-7.88644c0.00629,0.2103 -25.54575,-2.31336 -25.54575,-2.31336c0,0 -22.39748,2.2082 -22.40378,1.99791c0.0063,0.21029 -23.96846,11.2513 -23.96846,11.2513c0,0 -17.35016,12.93376 -17.35016,12.93376c0,0 -12.61829,15.14195 -12.94005,14.93165c0.0063,0.2103 -10.08834,21.97686 -10.08834,21.97686c0,0 -4.73186,23.6593 -4.73186,23.6593c0,0 0.94637,23.34385 0.94637,23.34385c-0.31546,0.31546 6.30915,20.18927 6.30915,20.18927c-0.63091,0.63091 11.67193,19.2429 11.67193,19.2429c0,0 157.72869,159.09569 157.72869,159.09569z" stroke-opacity="null" stroke-width="1.5" stroke="#000" fill="#203864"/>
 </g>
</svg>