<?xml version="1.0" ?><svg xmlns:dc="http://purl.org/dc/elements/1.1/" xmlns:cc="http://creativecommons.org/ns#" xmlns:rdf="http://www.w3.org/1999/02/22-rdf-syntax-ns#" xmlns:svg="http://www.w3.org/2000/svg" xmlns="http://www.w3.org/2000/svg" xmlns:sodipodi="http://sodipodi.sourceforge.net/DTD/sodipodi-0.dtd" xmlns:inkscape="http://www.inkscape.org/namespaces/inkscape" width="4.2333331mm" height="4.2333331mm" viewBox="0 0 4.2333331 4.2333331" version="1.1" id="svg839"><defs id="defs833"/><g id="layer1" transform="translate(73.404884,-1.9651226)"><g id="g1564"><g id="g2161" transform="translate(0.04559286)"><g id="g2179" transform="translate(0,-0.00696941)"><g id="g2278"><g id="g11029"><g id="g11022" transform="translate(0,0.02273762)"><g id="g5896" transform="translate(-0.1438843)"><g id="g18673"><g id="g1740" transform="translate(0.01164738,0.00111051)"><path id="path2070" style="fill:none;stroke:#000000;stroke-width:0.264583;stroke-linecap:round;stroke-linejoin:round;stroke-miterlimit:4;stroke-dasharray:none;stroke-opacity:1;paint-order:markers fill stroke" d="m -70.602774,3.0987041 c 0,0.4037405 -0.327297,0.7310367 -0.731037,0.7310363 -0.40374,-10e-8 -0.731036,-0.3272962 -0.731036,-0.7310363 0,-0.4037401 0.327296,-0.7310362 0.731036,-0.7310363 0.40374,-4e-7 0.731037,0.3272958 0.731037,0.7310363 z" transform="translate(-4.0166668e-7,-0.02273762)"/><path id="path2067" style="fill:none;stroke:#000000;stroke-width:0.264583;stroke-linecap:round;stroke-linejoin:round;stroke-miterlimit:4;stroke-dasharray:none;stroke-opacity:1;paint-order:markers fill stroke" d="m -72.92131,5.2588246 c 0,0.5114391 0.710747,0.5260658 1.5875,0.5260661 0.876753,2e-7 1.587503,-0.014626 1.587503,-0.5260661 0,-1.1928038 -3.175003,-1.1928038 -3.175003,0 z"/><path style="fill:none;stroke:#000000;stroke-width:0.264583;stroke-linecap:round;stroke-linejoin:round;stroke-miterlimit:4;stroke-dasharray:none;stroke-opacity:1;paint-order:markers fill stroke" d="M -72.14063,5.2078737 V 5.6535209" id="path2163"/><path style="fill:none;stroke:#000000;stroke-width:0.264583;stroke-linecap:round;stroke-linejoin:round;stroke-miterlimit:4;stroke-dasharray:none;stroke-opacity:1;paint-order:markers fill stroke" d="M -70.52699,5.2078737 V 5.6535209" id="path2165"/></g></g></g></g></g></g></g></g></g></g></svg>